<!DOCTYPE svg PUBLIC "-//W3C//DTD SVG 1.1//EN" "http://www.w3.org/Graphics/SVG/1.1/DTD/svg11.dtd">
<!-- Uploaded to: SVG Repo, www.svgrepo.com, Transformed by: SVG Repo Mixer Tools -->
<svg fill="#1c2638" height="800px" width="800px" version="1.1" id="Layer_1" xmlns="http://www.w3.org/2000/svg" xmlns:xlink="http://www.w3.org/1999/xlink" viewBox="0 0 462.37 462.37" xml:space="preserve" stroke="#1c2638">
<g id="SVGRepo_bgCarrier" stroke-width="0"/>
<g id="SVGRepo_tracerCarrier" stroke-linecap="round" stroke-linejoin="round"/>
<g id="SVGRepo_iconCarrier"> <g id="XMLID_505_"> <g> <g> <path d="M461.325,379.39l-31.56-91.34c-0.072-0.208-0.16-0.406-0.239-0.611c-7.836,11.432-17.689,22.481-29.019,31.972l25,72.354 c3.413,9.879,14.192,15.143,24.096,11.721C459.495,400.068,464.743,389.28,461.325,379.39z"/> <path d="M430.564,423.76h-56.471v-67.29l8.346-0.16c9.06-0.174,16.262-7.658,16.088-16.717 c-0.105-5.473-2.885-10.258-7.062-13.159c-26.552,19.08-58.623,29.422-94.98,29.144c-2.759-0.022-5.206-1.775-6.116-4.38 c-2.848-8.15-32.94-94.263-37.446-107.159c-0.032,24.792,2.253,53.32,5.384,75.408c0.624,4.403-0.47,8.866-2.912,12.483 l7.573,16.738c2.66,5.879,8.513,9.642,14.945,9.642c0.105,0,0.211-0.001,0.316-0.003l23.991-0.46v65.911h-56.471 c-9.061,0-16.405,7.345-16.405,16.405s7.345,16.405,16.405,16.405h184.815c9.061,0,16.405-7.345,16.405-16.405 C446.969,431.104,439.625,423.76,430.564,423.76z"/> <path d="M254.675,209.434l46.493,133.051c37.852-0.675,70.409-13.548,96.815-38.29c15.521-14.542,24.236-29.059,27.482-35.093 c-9.405-15.894-55.064-90.228-97.766-110.65c-4.87-2.329-10.41-3.51-16.467-3.51c-5.023,0-10.33,0.87-14.559,2.388l-30.631,10.99 C258.942,181.573,256.274,195,254.675,209.434z"/> <path d="M245.366,321.281c-1.912-13.489-10.018-76.499-2.122-124.752c6.634-40.542,28.621-56.169,28.621-56.169v-0.001 c4.32-2.037,8.056-4.877,11.088-8.275c8.228-9.223,11.28-22.544,6.812-34.995c-3.852-10.737-12.431-18.417-22.551-21.54 c0.078,0.305,0.173,0.602,0.24,0.911c2.516,11.675-3.456,23.587-13.956,29.217c-1.554,12.517-9.801,23.16-21.376,27.626 c-0.548,0.211-1.095,0.425-1.657,0.608c-2.165,3.524-5.038,6.565-8.404,8.956c0.124,0.703,0.235,1.411,0.315,2.13 c2.029,18.207-11.085,34.611-29.291,36.641l-20.084,2.239c-13.114,65.879-7.98,120.21-6.245,134.384 c0.496,4.056,2.264,6.199,4.259,9.101c0.867,1.261,2.291,1.992,3.787,1.992c0.275,0,0.551-0.025,0.828-0.075 c1.782-0.326,3.206-1.667,3.637-3.426l8.885-36.223l-0.811,51.676c-0.035,2.232,1.499,4.183,3.676,4.676l8.996,2.037 c0.35,0.079,0.701,0.117,1.046,0.117c2.139,0,4.074-1.464,4.588-3.632l9.876-41.696l5.263,32.49 c0.27,1.669,1.413,3.066,2.996,3.662c0.54,0.203,1.103,0.302,1.661,0.302c1.08,0,2.146-0.371,3.005-1.08l15.251-12.595 C244.965,324.54,245.596,322.908,245.366,321.281z"/> <path d="M182.379,83.408c-4.585,2.578-6.968,7.551-5.928,12.373c0.872,4.051,4.043,7.285,8.275,8.443 c4.308,1.179,6.633,5.842,4.997,9.988c-0.168,0.425-0.307,0.856-0.432,1.289c10.624-0.05,20.323,4.991,26.478,13.031 c3.357-3.582,3.089-7.525,8.411-8.436c8.715-1.97,14.829-10.05,14.574-19.288c-0.093-3.378,2.084-6.401,5.317-7.384 c6.154-1.868,9.982-7.933,8.717-13.805c-1.309-6.077-7.779-10.312-14.743-8.808c-4.736,1.017-8.17-2.002-8.86-5.511 c-0.354-1.096-2.663-6.805-12.415-8.408c1.103-4.285-2.154-8.317-6.438-8.317c-3.676,0-6.656,2.98-6.656,6.656 c0,0.635,0.094,1.247,0.26,1.829c-1.542,0.223-3.119,0.49-4.76,0.844c-2.729,0.588-5.167,1.787-7.187,3.406 c-1.291-0.674-2.756-1.061-4.313-1.061c-5.155,0-9.333,4.179-9.333,9.333c0,4.563,3.276,8.354,7.603,9.167 C185.442,80.684,184.193,82.388,182.379,83.408z"/> <circle cx="107.315" cy="42.551" r="36.752"/> <path d="M115.702,262.362l5.981-72.767c-9.412,1.049-6.077,0.678-14.265,1.59c-6.528,0.727-12.657-2.09-16.456-6.884 l-34.908-44.3l43.91,31.916c3.53,2.566,7.961,3.805,12.479,3.304l78.944-8.8c9.804-1.093,16.865-9.926,15.773-19.729 c-1.092-9.804-9.933-16.868-19.73-15.772l-72.064,8.033l-38.309-27.845l34.77,12.836l15.073-1.68 c-0.926-13.012-11.222-23.763-24.626-24.865L54.47,93.47c-14.805-1.217-27.793,9.798-29.009,24.603l-8.495,137.765l11.266,73.454 L0.768,429.465c-3.13,11.416,3.587,23.207,15.003,26.337c11.409,3.13,23.207-3.585,26.337-15.003L70.78,336.221 c0.796-2.903,0.972-5.941,0.516-8.916l-10.408-67.858l8.338,0.685l25.568,69.709L73.436,430.692 c-2.819,13.313,7.334,25.878,20.989,25.878c9.91,0,18.812-6.914,20.946-16.997l22.635-106.884 c0.835-3.941,0.542-8.038-0.846-11.82L115.702,262.362z"/> <circle cx="250.355" cy="48.972" r="6.605"/> <circle cx="222.1" cy="23.231" r="6.333"/> <path d="M192.909,54.118c5.505,0,9.967-4.462,9.967-9.967c0-0.704-0.075-1.391-0.214-2.054c-0.947-4.519-4.953-7.913-9.753-7.913 c-5.505,0-9.967,4.463-9.967,9.967c0,1.588,0.381,3.083,1.042,4.416C185.613,51.853,188.992,54.118,192.909,54.118z"/> </g> </g> </g> </g>
</svg>